<svg width="182" height="48" viewBox="0 0 182 48" fill="none" xmlns="http://www.w3.org/2000/svg">
<path d="M24.2258 32.7282C22.0506 35.2105 23.8133 37.152 27.1138 37.152H44.16C46.2808 37.152 48 40.8181 48 42.9389V44.16C48 46.2808 46.2808 48 44.16 48H4.00872C1.88795 48 0.168717 46.2808 0.168717 44.16V43.3599C0.168717 42.4201 0.513331 41.513 1.1373 40.8103L23.7676 15.3237C25.9669 12.8468 24.2085 10.68 20.8962 10.68H3.84C1.71922 10.68 0 7.21484 0 5.09407V3.84C0 1.71923 1.71923 0 3.84 0H43.8647C45.9855 0 47.7047 1.71923 47.7047 3.84V4.48966C47.7047 5.42075 47.3664 6.32013 46.7528 7.0204L24.2258 32.7282Z" fill="#333333"/>
<path d="M69.3727 22.5373H61.4813L60.1031 26.9998H53.9508L62.7117 3.1123H68.1258L76.9524 26.9998H70.7672L69.3727 22.5373ZM62.8594 18.0912H67.9946L65.4188 9.80605L62.8594 18.0912Z" fill="#333333"/>
<path d="M90.1994 13.4811L94.5963 3.1123H100.814L93.1197 18.4193V26.9998H87.2791V18.4193L79.601 3.1123H85.7861L90.1994 13.4811Z" fill="#333333"/>
<path d="M122.576 16.8771H113.52V22.5701H124.217V26.9998H107.761V3.1123H124.25V7.5584H113.52V12.5951H122.576V16.8771Z" fill="#333333"/>
<path d="M152.033 15.5482C152.033 17.7576 151.666 19.6881 150.933 21.3396C150.201 22.9803 149.189 24.2982 147.898 25.2936L151.754 28.3451L148.194 31.3639L143.058 27.2295C142.577 27.2951 142.096 27.3279 141.615 27.3279C139.58 27.3279 137.776 26.8576 136.201 25.917C134.626 24.9764 133.395 23.6311 132.509 21.8811C131.634 20.1311 131.18 18.1186 131.147 15.8436V14.5803C131.147 12.2287 131.574 10.1615 132.427 8.37871C133.291 6.5959 134.516 5.21777 136.102 4.24434C137.699 3.2709 139.526 2.78418 141.582 2.78418C143.605 2.78418 145.41 3.26543 146.996 4.22793C148.582 5.19043 149.812 6.56309 150.687 8.3459C151.573 10.1178 152.022 12.1521 152.033 14.449V15.5482ZM146.176 14.5475C146.176 12.174 145.776 10.3748 144.978 9.1498C144.19 7.91387 143.058 7.2959 141.582 7.2959C140.062 7.2959 138.919 7.90293 138.153 9.11699C137.387 10.3311 136.999 12.1084 136.988 14.449V15.5482C136.988 17.8998 137.376 19.7045 138.153 20.9623C138.929 22.2092 140.083 22.8326 141.615 22.8326C143.08 22.8326 144.201 22.2146 144.978 20.9787C145.765 19.7428 146.165 17.9654 146.176 15.6467V14.5475Z" fill="#333333"/>
<path d="M173.745 22.5373H165.854L164.476 26.9998H158.323L167.084 3.1123H172.498L181.325 26.9998H175.14L173.745 22.5373ZM167.232 18.0912H172.367L169.791 9.80605L167.232 18.0912Z" fill="#333333"/>
<rect x="54" y="33.6714" width="127.296" height="3.072" fill="#DC6F00"/>
<rect x="54" y="40.3916" width="127.296" height="4.8" fill="#DC6F00"/>
</svg>
