<svg width="190" height="56" viewBox="0 0 190 56" fill="none" xmlns="http://www.w3.org/2000/svg">
<g filter="url(#filter0_d)">
<path d="M28.2258 32.7282C26.0506 35.2105 27.8133 37.152 31.1138 37.152H48.16C50.2808 37.152 52 40.8181 52 42.9389V44.16C52 46.2808 50.2808 48 48.16 48H8.00872C5.88795 48 4.16872 46.2808 4.16872 44.16V43.3599C4.16872 42.4201 4.51333 41.513 5.1373 40.8103L27.7676 15.3237C29.9669 12.8468 28.2085 10.68 24.8962 10.68H7.84C5.71922 10.68 4 7.21484 4 5.09407V3.84C4 1.71923 5.71923 0 7.84 0H47.8647C49.9855 0 51.7047 1.71923 51.7047 3.84V4.48966C51.7047 5.42075 51.3664 6.32013 50.7528 7.0204L28.2258 32.7282Z" fill="white"/>
<path d="M73.3727 22.5373H65.4813L64.1031 26.9998H57.9508L66.7117 3.1123H72.1258L80.9524 26.9998H74.7672L73.3727 22.5373ZM66.8594 18.0912H71.9946L69.4188 9.80605L66.8594 18.0912Z" fill="white"/>
<path d="M94.1994 13.4811L98.5963 3.1123H104.814L97.1197 18.4193V26.9998H91.2791V18.4193L83.601 3.1123H89.7861L94.1994 13.4811Z" fill="white"/>
<path d="M126.576 16.8771H117.52V22.5701H128.217V26.9998H111.761V3.1123H128.25V7.5584H117.52V12.5951H126.576V16.8771Z" fill="white"/>
<path d="M156.033 15.5482C156.033 17.7576 155.666 19.6881 154.933 21.3396C154.201 22.9803 153.189 24.2982 151.898 25.2936L155.754 28.3451L152.194 31.3639L147.058 27.2295C146.577 27.2951 146.096 27.3279 145.615 27.3279C143.58 27.3279 141.776 26.8576 140.201 25.917C138.626 24.9764 137.395 23.6311 136.509 21.8811C135.634 20.1311 135.18 18.1186 135.147 15.8436V14.5803C135.147 12.2287 135.574 10.1615 136.427 8.37871C137.291 6.5959 138.516 5.21777 140.102 4.24434C141.699 3.2709 143.526 2.78418 145.582 2.78418C147.605 2.78418 149.41 3.26543 150.996 4.22793C152.582 5.19043 153.812 6.56309 154.687 8.3459C155.573 10.1178 156.022 12.1521 156.033 14.449V15.5482ZM150.176 14.5475C150.176 12.174 149.776 10.3748 148.978 9.1498C148.19 7.91387 147.058 7.2959 145.582 7.2959C144.062 7.2959 142.919 7.90293 142.153 9.11699C141.387 10.3311 140.999 12.1084 140.988 14.449V15.5482C140.988 17.8998 141.376 19.7045 142.153 20.9623C142.929 22.2092 144.083 22.8326 145.615 22.8326C147.08 22.8326 148.201 22.2146 148.978 20.9787C149.765 19.7428 150.165 17.9654 150.176 15.6467V14.5475Z" fill="white"/>
<path d="M177.745 22.5373H169.854L168.476 26.9998H162.323L171.084 3.1123H176.498L185.325 26.9998H179.14L177.745 22.5373ZM171.232 18.0912H176.367L173.791 9.80605L171.232 18.0912Z" fill="white"/>
<rect x="58" y="33.6714" width="127.296" height="3.072" fill="#DC6F00"/>
<rect x="58" y="40.3916" width="127.296" height="4.8" fill="#DC6F00"/>
</g>
<defs>
<filter id="filter0_d" x="0" y="0" width="189.325" height="56" filterUnits="userSpaceOnUse" color-interpolation-filters="sRGB">
<feFlood flood-opacity="0" result="BackgroundImageFix"/>
<feColorMatrix in="SourceAlpha" type="matrix" values="0 0 0 0 0 0 0 0 0 0 0 0 0 0 0 0 0 0 127 0"/>
<feOffset dy="4"/>
<feGaussianBlur stdDeviation="2"/>
<feColorMatrix type="matrix" values="0 0 0 0 0 0 0 0 0 0 0 0 0 0 0 0 0 0 0.25 0"/>
<feBlend mode="normal" in2="BackgroundImageFix" result="effect1_dropShadow"/>
<feBlend mode="normal" in="SourceGraphic" in2="effect1_dropShadow" result="shape"/>
</filter>
</defs>
</svg>
